<svg xmlns="http://www.w3.org/2000/svg" viewBox="0 0 128 128" role="img" aria-label="C icon">
  <defs>
    <linearGradient id="g" x1="18" y1="12" x2="112" y2="118" gradientUnits="userSpaceOnUse">
      <stop stop-color="#7dd3fc"/>
      <stop offset="0.52" stop-color="#ffffff"/>
      <stop offset="1" stop-color="#fde68a"/>
    </linearGradient>
    <filter id="s" x="-20%" y="-20%" width="140%" height="140%">
      <feDropShadow dx="0" dy="10" stdDeviation="10" flood-color="#0284c7" flood-opacity=".35"/>
    </filter>
  </defs>
  <rect width="128" height="128" rx="34" fill="#05070d"/>
  <path d="M96 39c-8.1-9.2-19.2-14-32.7-14C41.3 25 25 41.4 25 64.4S41.5 104 64.2 104c13.6 0 24.5-4.7 32.4-13.8l-14-13.3c-4.7 5.2-10.5 7.9-17.3 7.9-11.8 0-20.4-8.6-20.4-20.4s8.6-20.2 20.4-20.2c6.8 0 12.6 2.6 17.3 7.8L96 39Z" fill="url(#g)" filter="url(#s)"/>
  <circle cx="98" cy="31" r="7" fill="#facc15"/>
</svg>
