<svg xmlns="http://www.w3.org/2000/svg" width="1080" height="1080" viewBox="0 0 1080 1080">
  <rect width="1080" height="1080" fill="#fff"/><g transform="translate(196 82)"><path d="M0 70 90 0l590 36v856L0 920Z" fill="#cf0d22"/><path d="M0 70 90 0v856L0 920Z" fill="#ad1020"/><path d="M90 0 680 36v856L90 856Z" fill="#d20b20"/><path d="M36 126c20 0 36-16 36-36S56 54 36 54 0 70 0 90s16 36 36 36Z" fill="#fff" opacity=".95" transform="translate(26 0)"/>
    <text x="185" y="250" fill="#fff" font-size="170" font-weight="900" font-family="Arial, sans-serif">ALL</text><text x="295" y="540" fill="#fff" font-size="170" font-weight="900" font-family="Arial, sans-serif">IN</text>
    <text x="335" y="292" fill="#191919" font-size="21" font-family="Arial">HOW GREAT LEADERS BUILD</text><text x="356" y="318" fill="#191919" font-size="21" font-family="Arial">UNSTOPPABLE TEAMS</text>
    <text x="244" y="660" fill="#fff" font-size="70" font-weight="900" font-family="sans-serif">全情投入</text><text x="298" y="744" fill="#191919" font-size="38" font-weight="700" font-family="sans-serif">打造</text><text x="222" y="794" fill="#191919" font-size="38" font-weight="700" font-family="sans-serif">势不可挡的团队</text>
    <text x="172" y="887" fill="#fff" font-size="24" font-family="sans-serif">[美] 迈克·米夏洛维奇 著　贾洋杰 赵涛 译</text>
    <text x="26" y="248" writing-mode="tb" fill="#fff" font-size="46" font-weight="900" font-family="sans-serif">全情投入</text><text x="720" y="86" writing-mode="tb" fill="#191919" font-size="28" font-family="sans-serif">你的火车头为什么拉不动车厢？</text>
  </g>
</svg>
